<?xml version="1.0" encoding="utf-8"?>
<!-- Generator: Adobe Illustrator 16.0.0, SVG Export Plug-In . SVG Version: 6.00 Build 0)  -->
<!DOCTYPE svg PUBLIC "-//W3C//DTD SVG 1.1//EN" "http://www.w3.org/Graphics/SVG/1.1/DTD/svg11.dtd">
<svg version="1.1" id="Layer_1" xmlns="http://www.w3.org/2000/svg" xmlns:xlink="http://www.w3.org/1999/xlink" x="0px" y="0px"
	 width="100px" height="100px" viewBox="0 0 100 100" enable-background="new 0 0 100 100" xml:space="preserve">
<g>
	<g>
		<g>
			<defs>
				<circle id="SVGID_1_" cx="50" cy="50" r="50"/>
			</defs>
			<clipPath id="SVGID_2_">
				<use xlink:href="#SVGID_1_"  overflow="visible"/>
			</clipPath>
			<g clip-path="url(#SVGID_2_)">
				<path fill="#DDDDDD" d="M36.686,69.727c0.16-2.226-0.188-4.24-1.507-6.194c-1.339-1.981-2.175-4.267-2.506-6.703
					c-0.131-0.997-0.394-1.892-1.748-2.14c-1.013-0.186-1.602-1.217-1.963-2.198c-1.589-4.331-2.513-8.675-0.123-13.044
					c1.15,0.248,1.001,1.302,1.234,2.077c0.618,2.063,0.896,4.234,1.879,6.587c0.772-1.7,0.54-3.152,0.557-4.554
					c0.039-2.834-0.071-5.68,1.035-8.38c1.06-1.287,1.475-2.798,1.524-4.434c0.086-0.868,0.441-1.563,1.259-1.956
					c1.121-0.449,1.879-1.256,2.342-2.362c0.344-0.703,0.971-1.11,1.596-1.524c1.593-0.781,3.281-1.215,5.05-1.348
					c3.09-0.101,6.191,0.159,9.283-0.157c1.101-0.252,2.223-0.459,3.234-1.006c0.424-0.146,0.854-0.252,1.299-0.077
					c0.65,0.517,0.545,1.227,0.504,2.327c-0.004-0.106,0.473-0.49,0.189-0.396c-0.172-0.854-0.328-1.715-0.576-2.557
					c0.15-0.482,0.262-1.073,0.926-0.985c0.506,0.062,0.682,0.594,0.67,1.002c-0.18,5.697,1.752,10.667,5.033,15.235
					c0.633,0.877,0.344,2.125,0.369,3.215c0.055,2.454-0.145,4.914,0.408,7.404c1.051-1.825,1.441-3.849,1.988-5.818
					c0.233-0.849,0.094-1.959,1.282-2.29c2.002,4.079,1.445,8.179-0.016,12.229c-0.507,1.389-1.033,2.899-2.851,3.26
					c-0.746,0.149-0.91,0.894-1,1.549c-0.434,3.078-1.559,5.886-3.36,8.4c-1.103,1.545-0.354,3.256-0.64,4.865
					c-0.195,0.107-0.383,0.094-0.557-0.043c-0.656-0.71-0.143-1.689-0.436-2.305c0.102,0.134-0.086,0.371-0.211,0.621
					c-5.719,6.613-16.311,7.13-22.526,0.498c-0.416-0.354-0.65-0.883-1.077-1.231c-0.225-0.188-0.344,0.104-0.102,0.056
					c0.308-0.049,0.377,0.336,0.471,0.596C37.581,68.682,37.85,69.584,36.686,69.727z"/>
				<path fill="#282828" d="M40.224,25.507c-0.472,0.418-0.938,0.839-1.409,1.258c-0.508,0.938-1.199,1.694-2.188,2.138
					c-0.684,0.438-0.973,1.133-1.248,1.843c-0.202,1.53-0.618,2.996-1.331,4.376c-0.997,3.316-0.884,6.73-0.892,10.138
					c-0.004,1.089,0.004,2.179-0.413,3.219c-0.164,0.403-0.291,0.894-0.791,0.912c-0.599,0.024-0.585-0.568-0.688-0.948
					c-0.825-2.996-1.619-6.002-2.426-8.997c-0.663-3.877-1.444-7.735-0.559-11.696c0.529-2.377,1.289-4.596,2.985-6.436
					c2.375-2.579,4.704-5.2,7.017-7.835c1.561-1.781,3.757-2.365,5.729-3.437c0.546,0.878-0.171,1.578,0.212,2.399
					c2.33,0.115,3.186-2.104,4.718-3.215c0.521-0.38,0.824-1.027,1.609-0.843c4.18,0.992,8.139,2.322,10.194,6.592
					c-0.106,0.521-0.156,1.015,0.51,1.207c1.326,0.848,2.695,1.629,3.951,2.563c2.862,2.121,4.271,5.175,5.226,8.49
					c0.952,2.253,1.342,4.536,0.366,6.893c-0.291,1.775-0.58,3.544-0.866,5.317c-0.892,2.906-1.357,5.936-2.515,8.767
					c-0.172,0.434-0.133,1.146-0.836,1.041c-0.476-0.068-0.529-0.64-0.649-1.055c-0.688-2.438-0.306-4.924-0.269-7.385
					c0.039-2.34-0.461-4.269-1.949-6.227c-2.979-3.915-3.688-8.592-3.342-13.452c-0.685-0.004-0.707,0.517-0.92,0.835
					c-0.031,0.254-0.175,0.402-0.427,0.452c-0.301,0.126-0.604,0.248-0.903,0.371c-3.976,0.904-8.038,0.745-12.071,0.945
					C43.975,23.844,41.877,23.958,40.224,25.507z"/>
				<path fill="#DDDDDD" d="M36.686,69.727c0.699-0.623,0.327-1.457,0.435-2.197c0.549-0.164,0.819,0.207,1.09,0.57
					c3.89,4.652,8.546,8.068,14.689,9.09c2.32,0.392,4.619,0.261,6.943-0.096c0.645-0.098,2.035-0.883,1.799,0.957
					c-1.217,1.844-3.17,2.771-4.961,3.846c-3.379,2.029-5.969,4.615-6.988,8.539c-0.045,0.17-0.266,0.295-0.605,0.658
					c-0.656-4.896-4.021-7.361-7.702-9.572c-1.057-0.633-2.216-1.112-2.999-2.127c-1.236-1.199-1.067-2.742-1.056-4.256
					c0.008-1.311,0-2.629,0.004-3.762c-0.139,1.984,0.259,4.139-0.25,6.293c-0.859-2.467-0.155-5.016-0.41-7.521
					C36.673,70.012,36.673,69.865,36.686,69.727z"/>
				<path fill="#C7C5C6" d="M61.645,78.057c-0.436-1.287-1.41-0.432-1.979-0.344c-9.097,1.449-16.039-2.099-21.528-9.105
					c-0.119-0.153-0.11-0.414-0.158-0.623c0.147-0.188,0.302-0.198,0.458-0.006c2.579,2.33,5.408,4.022,8.996,4.479
					c4.576,0.59,8.42-0.769,11.855-3.649c0.5-0.412,0.996-0.841,1.487-1.271c1.146,0.387,0.271,1.591,0.892,2.188
					c0.133,0.008,0.269,0.021,0.397,0.028c0.174,0.261,0.345,0.521,0.519,0.781c-0.949,1.225-0.301,2.649-0.494,3.968
					C61.904,75.68,62.514,76.961,61.645,78.057z"/>
				<path fill="#003176" d="M87.057,84.646c-1.205,1.526-2.412,0.28-3.5-0.115c-2.434-0.885-4.342-2.854-6.928-3.469
					c-0.041-0.013-0.061-0.09-0.09-0.142c0.174-0.09,0.354-0.182,0.525-0.271C80.537,81.633,83.752,83.246,87.057,84.646z"/>
				<path fill="#282828" d="M61.254,16.186c-0.07,0.221-0.143,0.714-0.336,0.531c-0.502-0.463-0.883-1.088-0.176-1.737
					C60.918,15.381,61.084,15.781,61.254,16.186z"/>
				<path fill="#E0E0E0" d="M37.087,77.67c0-2.304,0-4.605,0-6.91c0.743,2.854-0.114,5.896,1.306,8.639
					C37.727,78.992,37.152,78.527,37.087,77.67z"/>
				<path fill="#282828" d="M40.224,25.507c-0.242-1.229,0.855-1.067,1.449-1.313c3.227-1.339,6.719-0.796,10.069-1.287
					c2.086-0.304,4.252-0.092,6.379-0.112c-0.91,0.57-1.822,1.142-2.979,0.958c-2.515,0.411-5.052,0.073-7.573,0.198
					c-0.856,0.044-1.737-0.209-2.564,0.201C43.386,24.507,41.736,24.76,40.224,25.507z"/>
				<path fill="#282828" d="M45.006,24.151c2.388-0.909,4.869-0.221,7.301-0.41c0.939-0.073,1.889,0.003,2.83,0.011
					C51.787,24.509,48.382,23.925,45.006,24.151z"/>
				<path fill="#DEDEDE" d="M34.048,35.121c0.085-1.567,0.565-3.015,1.331-4.376C35.816,32.471,35.373,33.932,34.048,35.121z"/>
				<path fill="#E1E1E1" d="M65.037,41.827c0,1.688,0,3.38,0,5.068c-0.072-0.002-0.141-0.002-0.217-0.002c0-1.688,0-3.382,0-5.068
					C64.893,41.825,64.965,41.825,65.037,41.827z"/>
				<path fill="#E1E1E1" d="M36.627,28.904c0.599-0.849,1.298-1.592,2.188-2.138C38.663,28.073,37.995,28.847,36.627,28.904z"/>
				<path fill="#C2C1C2" d="M61.658,69.727c-0.912-0.479-0.182-1.619-0.887-2.188c0.297-0.472,0.662-0.979,0.856,0.011
					C61.764,68.249,61.654,69.002,61.658,69.727z"/>
				<path fill="#DEDEDE" d="M59.023,22.423c0.145-0.152,0.285-0.302,0.426-0.452c0.752,0.801,0.414,1.721,0.32,2.924
					C59.467,23.879,59.244,23.151,59.023,22.423z"/>
				<path fill="#CECECE" d="M38.431,67.979c-0.151,0-0.304,0-0.458,0.006c-0.283-0.153-0.566-0.305-0.853-0.455
					C38.009,66.365,38.041,67.689,38.431,67.979z"/>
				<path fill="#003176" d="M100,99.986c0.004-1.33-0.135-2.639-0.707-3.887c-1.689-6.373-6.672-9.226-12.236-11.453
					c-0.897,0.317-1.705-0.054-2.52-0.351c-2.615-0.953-4.932-2.524-7.473-3.646c-1.502-0.565-3.004-1.133-4.506-1.696
					c-0.902-0.521-1.791-1.074-2.621-1.705c-0.527-0.358-0.974-0.801-1.226-1.408c-0.883-1.762-2.155-3.129-3.985-3.938
					c-0.718-0.455-1.437-0.912-2.148-1.366c-1.238,0.171-1.074,1.204-1.148,2.002c-0.137,1.601,0.025,3.202-0.113,4.81
					c-0.844,1.767-2.541,2.578-4.069,3.5c-3.729,2.238-6.866,4.922-7.902,9.139c0.04-0.465-0.169-0.973-0.344-1.479
					c-0.849-2.534-2.7-4.258-4.759-5.803c-1.741-1.312-3.779-2.183-5.435-3.615c-0.713-0.541-1.142-1.264-1.396-2.104
					c-0.173-0.938-0.029-1.897-0.119-2.838c-0.129-1.338,0.451-2.791-0.614-3.986c-3.489,1.723-5.629,4.915-8.262,7.568
					c-0.793,0.641-1.972,0.422-2.691,1.221c-5.407,1.729-10.851,3.393-15.832,6.18c-4.025,2.256-7.961,4.648-9.12,9.637
					c-0.601,1.767-0.896,3.514-0.72,5.234H100V99.986z"/>
			</g>
		</g>
	</g>
</g>
</svg>
