<?xml version="1.0" encoding="utf-8"?>
<!-- Generator: Adobe Illustrator 21.1.0, SVG Export Plug-In . SVG Version: 6.00 Build 0)  -->
<svg version="1.1" id="Capa_1" xmlns="http://www.w3.org/2000/svg" xmlns:xlink="http://www.w3.org/1999/xlink" x="0px" y="0px"
	 viewBox="0 0 512 512" style="enable-background:new 0 0 512 512;" xml:space="preserve">
<style type="text/css">
	.st0{fill:#595959;}
</style>
<g>
	<g>
		<path class="st0" d="M211.7,316.2c13.6-13,22.1-31.4,22.1-51.7v-39.1c6.2-8.1,9.9-18.3,9.9-29.2v-40.9c0-5.5-4.5-10-10-10h-82.4
			c-33.4,0-60.7,27.2-60.7,60.7v58.6c0,20.3,8.5,38.6,22.1,51.7c-55.7,2-100.5,47.9-100.5,104.2V502c0,5.5,4.5,10,10,10h279.9
			c5.5,0,10-4.5,10-10v-81.6C312.2,364.1,267.4,318.2,211.7,316.2z M151.2,165.3h72.4v30.9c0,15.7-12.7,28.4-28.4,28.4h-84.7v-1.3
			v-17.3h0C110.6,183.5,128.8,165.3,151.2,165.3z M110.6,264.5v-20h84.7c6.6,0,12.8-1.3,18.5-3.7v23.7c0,28.5-23.1,51.6-51.6,51.6
			S110.6,293,110.6,264.5z M202.7,336.1l-39.1,66.3l-39.1-66.3H202.7z M292.2,492L292.2,492h-22.5v-69.9c0-5.5-4.5-10-10-10
			s-10,4.5-10,10V492h-172v-69.9c0-5.5-4.5-10-10-10s-10,4.5-10,10V492H32.2v-71.6c0-41.5,30.2-76.1,69.9-83l53,89.8
			c1.8,3,5.1,4.9,8.6,4.9s6.8-1.9,8.6-4.9l52.7-89.3c38.3,7.9,67.2,41.9,67.2,82.5L292.2,492L292.2,492z"/>
	</g>
</g>
<g>
	<g>
		<path class="st0" d="M449.8,0h-56.5c-5.5,0-10,4.5-10,10s4.5,10,10,10h56.5c16.5,0,30,13.5,30,30v134c0,16.5-13.5,30-30,30h-36.5
			c-2.7,0-5.2,1.1-7.1,2.9L359,264.1V224c0-5.5-4.5-10-10-10h-85.2c-5.5,0-10,4.5-10,10s4.5,10,10,10H339v54.3c0,4,2.4,7.7,6.2,9.2
			c1.2,0.5,2.5,0.8,3.8,0.8c2.6,0,5.2-1,7.1-2.9l61.4-61.4h32.3c27.6,0,50-22.4,50-50V50C499.8,22.4,477.4,0,449.8,0z"/>
	</g>
</g>
<g>
	<g>
		<path class="st0" d="M363.9,2.9C362,1.1,359.4,0,356.8,0s-5.2,1.1-7.1,2.9c-1.9,1.9-2.9,4.4-2.9,7.1s1.1,5.2,2.9,7.1
			s4.4,2.9,7.1,2.9s5.2-1.1,7.1-2.9s2.9-4.4,2.9-7.1S365.7,4.8,363.9,2.9z"/>
	</g>
</g>
<g>
	<g>
		<path class="st0" d="M320.2,0h-56.5c-27.6,0-50,22.4-50,50v55.5c0,5.5,4.5,10,10,10s10-4.5,10-10V50c0-16.5,13.5-30,30-30h56.5
			c5.5,0,10-4.5,10-10S325.8,0,320.2,0z"/>
	</g>
</g>
<g>
	<g>
		<path class="st0" d="M226.2,427.1h-14c-5.5,0-10,4.5-10,10s4.5,10,10,10h14c5.5,0,10-4.5,10-10S231.7,427.1,226.2,427.1z"/>
	</g>
</g>
<g>
	<g>
		<path class="st0" d="M421.6,53.8l-90.4,90.4L292,105l-24.1,24.1l51.2,51.2c3.2,3.2,7.5,5,12.1,5c4.5,0,8.9-1.8,12.1-5L445.7,77.9
			L421.6,53.8z"/>
	</g>
</g>
</svg>
