<?xml version="1.0" encoding="utf-8"?>
<!-- Generator: Adobe Illustrator 21.1.0, SVG Export Plug-In . SVG Version: 6.00 Build 0)  -->
<svg version="1.1" id="Capa_1" xmlns="http://www.w3.org/2000/svg" xmlns:xlink="http://www.w3.org/1999/xlink" x="0px" y="0px"
	 viewBox="0 0 512 512" style="enable-background:new 0 0 512 512;" xml:space="preserve">
<style type="text/css">
	.st0{fill:#595959;}
</style>
<g>
	<g>
		<path class="st0" d="M457.3,171.9c5.5-7.6,8.7-16.9,8.7-26.9V84.9c0-5.5-4.5-10-10-10h-44.7c-20.7,0-37.5,16.8-37.5,37.5V145
			c0,10,3.2,19.3,8.7,26.9c-6.8,1.1-13.4,3.3-19.5,6.5c-13.9-20.7-36.7-35-62.8-37.4c-0.1,0-0.2,0-0.3-0.1
			c9.4-10.5,15.1-24.2,15.1-39.3V19.9c0-5.5-4.5-10-10-10h-60.7c-26.1,0-47.3,21.2-47.3,47.3v44.3c0,15.1,5.7,28.9,15.1,39.3
			c-0.1,0-0.2,0-0.3,0.1c-26.2,2.4-48.9,16.7-62.8,37.4c-6.1-3.2-12.7-5.4-19.5-6.5c5.5-7.6,8.7-16.9,8.7-26.9v-60
			c0-5.5-4.5-10-10-10H83.4c-20.7,0-37.5,16.8-37.5,37.5V145c0,10.1,3.2,19.4,8.7,26.9C23.7,177,0,203.9,0,236.3v109.6
			c0,5.5,4.5,10,10,10h492c5.5,0,10-4.5,10-10V236.3C512,203.9,488.3,177,457.3,171.9z M65.9,112.4c0-9.6,7.8-17.5,17.5-17.5h34.7
			v12.2c0,6-4.9,10.8-10.8,10.8H65.9V112.4z M65.9,137.9h41.3c3.8,0,7.5-0.7,10.8-2v9.1c0,14.4-11.7,26.1-26.1,26.1
			S65.8,159.4,65.8,145L65.9,137.9L65.9,137.9z M98.4,191.1l-6.4,6.4l-6.4-6.4H98.4z M134.6,225.6v110.3H20v-99.6
			c0-22.4,16.4-41.1,37.9-44.6L85,218.8c1.9,1.9,4.4,2.9,7.1,2.9s5.2-1.1,7.1-2.9l27.1-27.1c4.8,0.8,9.4,2.3,13.7,4.6
			C136.4,205.4,134.6,215.3,134.6,225.6z M256,140.6c-21.5,0-39-17.5-39-39V88.4h59.8c6.6,0,12.9-1.7,18.3-4.7v17.9
			C295,123.1,277.5,140.6,256,140.6z M273.4,160.6L256,178l-17.4-17.4H273.4z M217,57.2L217,57.2c0-15.1,12.3-27.3,27.3-27.3H295V50
			c0,10.1-8.2,18.3-18.3,18.3H217V57.2L217,57.2z M155.3,215.9c4.3-28.4,27-50.9,55.6-54.7l38,38c2,2,4.5,2.9,7.1,2.9s5.1-1,7.1-2.9
			l38-38c31.8,4.3,56.3,31.5,56.3,64.4v110.3l0,0H338H174h-19.4v-100L155.3,215.9z M393.9,112.4c0-9.6,7.8-17.5,17.5-17.5h34.7v12.2
			c0,6-4.9,10.8-10.8,10.8H394v-5.5H393.9z M393.9,137.9h41.3c3.8,0,7.5-0.7,10.8-2v9.1c0,14.4-11.7,26.1-26.1,26.1
			s-26.1-11.7-26.1-26.1L393.9,137.9L393.9,137.9z M426.4,191.1l-6.4,6.4l-6.4-6.4H426.4z M377.4,335.9V225.6
			c0-10.3-1.9-20.2-5.2-29.4c4.3-2.3,8.9-3.8,13.7-4.6l27.1,27.1c1.9,1.9,4.4,2.9,7.1,2.9s5.2-1.1,7.1-2.9l27.1-27.1
			c21.5,3.5,37.9,22.2,37.9,44.6v99.7L377.4,335.9L377.4,335.9z"/>
	</g>
</g>
<g>
	<g>
		<path class="st0" d="M263.1,187.8c-1.9-1.9-4.4-2.9-7.1-2.9s-5.2,1.1-7.1,2.9s-2.9,4.4-2.9,7.1s1.1,5.2,2.9,7.1
			c1.9,1.9,4.4,2.9,7.1,2.9s5.2-1.1,7.1-2.9c1.9-1.9,2.9-4.4,2.9-7.1S264.9,189.7,263.1,187.8z"/>
	</g>
</g>
<g>
	<rect x="0.5" y="403.6" class="st0" width="511.5" height="26.1"/>
	<rect x="0.5" y="468.8" class="st0" width="376.2" height="26.1"/>
</g>
</svg>
