<?xml version="1.0" encoding="utf-8"?>
<!-- Generator: Adobe Illustrator 21.1.0, SVG Export Plug-In . SVG Version: 6.00 Build 0)  -->
<svg version="1.1" id="Layer_1" xmlns="http://www.w3.org/2000/svg" xmlns:xlink="http://www.w3.org/1999/xlink" x="0px" y="0px"
	 viewBox="0 0 480 480" style="enable-background:new 0 0 480 480;" xml:space="preserve">
<style type="text/css">
	.st0{fill:#8F8F8F;}
</style>
<path class="st0" d="M352,464H64c-13.3,0-24-10.7-24-24V40c0-13.3,10.7-24,24-24h224v72c0,3.4,2.2,6.5,5.5,7.6s6.9,0,8.9-2.8
	L320,69.3l17.6,23.5c1.5,2,3.9,3.2,6.4,3.2c0.9,0,1.7-0.1,2.5-0.4c3.3-1.1,5.5-4.1,5.5-7.6V16c13.3,0,24,10.7,24,24v74h16V40
	c0-22.1-17.9-40-40-40H64C41.9,0,24,17.9,24,40v400c0,22.1,17.9,40,40,40h288c22.1,0,40-17.9,40-40h-16C376,453.3,365.3,464,352,464
	z M336,64l-9.6-12.8c-1.6-1.9-3.9-3-6.4-3s-4.8,1.1-6.4,3L304,64V16h32V64z"/>
<path class="st0" d="M72,48h32v16H72V48z"/>
<path class="st0" d="M120,48h80v16h-80V48z"/>
<path class="st0" d="M72,80h128v16H72V80z"/>
<path class="st0" d="M72,144h85.6v16H72V144z"/>
<path class="st0" d="M164.2,144H184v16h-19.8V144z"/>
<path class="st0" d="M72,192h93.1v16H72V192z"/>
<path class="st0" d="M72,240h69.8v16H72V240z"/>
<path class="st0" d="M72,405.3h81.5v16H72V405.3z"/>
<g>
	<g>
		<g>
			<path class="st0" d="M442.7,301.7l-17.4-4.2v-3.1c11.4-7.9,18.8-21,18.8-36v-22.6c0-24.2-19.6-43.9-43.9-43.9
				c-10.9,0-20.8,4-28.4,10.5c-8.5-20.9-29-35.6-53-35.6c-24,0-44.5,14.8-53,35.7C258,196.1,248,192,237.2,192
				c-24.2,0-43.9,19.6-43.9,43.9v1.5v21.1c0,14.8,7.4,27.9,18.8,36v3.1l-17.4,4.2c-20.8,4.9-35.3,23.4-35.3,44.7v18.3
				c0,5.4,4.3,9.8,9.8,9.8h45c-0.1,1.2-0.1,2.3-0.1,3.6v35.2c0,5.4,4.3,9.8,9.8,9.8h59.1c5.4,0,9.8-4.3,9.8-9.8s-4.3-9.8-9.8-9.8
				h-10.1v-20.3c0-5.4-4.3-9.8-9.8-9.8c-5.4,0-9.8,4.3-9.8,9.8v20.3h-19.4v-25.5c0-18.9,12.9-35.1,31.1-39.5l26.8-6.4l18,40.9
				c1.6,3.6,5.1,5.8,9,5.8l0,0c3.8,0,7.4-2.3,9-5.8l17.9-40.9l26.8,6.4c18.4,4.4,31.3,20.6,31.3,39.5v25.3h-19.4v-20.3
				c0-5.4-4.3-9.8-9.8-9.8c-5.4,0-9.8,4.3-9.8,9.8v20.3h-11.1c-5.4,0-9.8,4.3-9.8,9.8c0,5.4,4.3,9.8,9.8,9.8h59.8
				c5.4,0,9.8-4.3,9.8-9.8v-35.2c0-1.2,0-2.5-0.1-3.6h45.1c5.4,0,9.8-4.3,9.8-9.8v-18.3C478,325.1,463.4,306.6,442.7,301.7z
				 M400.2,211.6c12.9,0,23.4,10,24.2,22.6h-13.6c-11.5,0-22.7-2.7-32.9-8C381.6,217.7,390.3,211.6,400.2,211.6z M375.9,257.1
				c0-0.5,0-1,0-1.5v-8.8c11,4.6,22.9,6.9,34.7,6.9h13.7v4.7c0,13.3-10.9,24.2-24.2,24.2c-13.3,0-24.2-10.9-24.2-24.2V257.1z
				 M281.2,224.1L281.2,224.1c0-20.8,16.9-37.6,37.6-37.6c18.7,0,34.2,13.7,37.2,31.6l-16.4-9.6c-4.1-2.5-9.4-1.5-12.5,2.1
				c-8,9.6-19.9,15.1-32.4,15.1h-13.3L281.2,224.1L281.2,224.1z M237.3,211.6c10,0,18.5,6.1,22.2,14.6c-10.1,5.2-21.4,8-32.9,8
				h-13.6C213.9,221.6,224.4,211.6,237.3,211.6z M213.1,253.9h13.7c12,0,23.8-2.3,34.8-6.9v11.6c0,13.3-10.9,24.2-24.2,24.2
				c-13.3,0-24.2-10.9-24.2-24.2L213.1,253.9L213.1,253.9z M260.3,319.5c-19.3,4.6-34.4,18-41.6,35.5h-39.5v-8.5
				c0-12.2,8.4-22.9,20.3-25.7l25-5.9c4.4-1.1,7.5-4.9,7.5-9.5V302c1.9,0.2,3.6,0.4,5.4,0.4s3.7-0.1,5.4-0.4v2.8c0,0.1,0,0.2,0,0.5
				c0,3.2,1.6,6.3,4.4,8.3c1.1,0.7,2.2,1.1,3.5,1.4l14.6,3.5L260.3,319.5z M287.6,304.3c-2.5-1.1-5.2-2-7.8-2.6l-17.5-4.2v-3.1
				c3.2-2.2,6.1-4.8,8.5-7.8c4.3,6.8,10.1,12.5,16.8,16.9V304.3L287.6,304.3z M330.2,318.8l-11.5,26.1l-11.5-26.1v-7
				c3.7,0.7,7.7,1.2,11.6,1.2s7.7-0.4,11.4-1.1L330.2,318.8L330.2,318.8z M318.8,293.3c-20.8,0-37.6-16.9-37.6-37.6v-10.4h13.3
				c15.6,0,30.3-5.8,41.6-16.1l20.1,11.9v15.9C355.5,277.1,339,293.3,318.8,293.3z M349.7,304.3v-0.6c6.8-4.3,12.6-10.1,16.9-16.9
				c2.5,3,5.3,5.4,8.4,7.7v3.1l-17.5,4.2C354.9,302.3,352.3,303.2,349.7,304.3z M458.5,355h-39.8c-7.2-17.4-22.4-30.8-41.6-35.5
				l-4.9-1.2l14.7-3.5c1.2-0.2,2.5-0.7,3.6-1.4c2.8-1.9,4.4-5.1,4.4-8.3c0-0.1,0-0.1,0-0.2v-3c1.7,0.2,3.6,0.4,5.4,0.4
				c1.9,0,3.7-0.1,5.4-0.4v3.3c0,4.6,3.1,8.5,7.5,9.5l25,5.9c12,2.8,20.3,13.5,20.3,25.7V355L458.5,355z"/>
		</g>
	</g>
	<g>
		<g>
			<path class="st0" d="M325.6,406.4c-1.9-1.9-4.3-2.8-6.9-2.8c-2.6,0-5.1,1-6.9,2.8c-1.9,1.9-2.8,4.3-2.8,6.9c0,2.6,1,5.1,2.8,6.9
				c1.9,1.9,4.3,2.8,6.9,2.8c2.6,0,5.1-1,6.9-2.8c1.9-1.9,2.8-4.3,2.8-6.9C328.5,410.7,327.4,408.2,325.6,406.4z"/>
		</g>
	</g>
	<g>
		<g>
			<path class="st0" d="M318.6,114c-5.4,0-9.8,4.3-9.8,9.8v14.7c0,5.4,4.3,9.8,9.8,9.8s9.8-4.3,9.8-9.8v-14.6
				C328.5,118.4,324,114,318.6,114z"/>
		</g>
	</g>
	<g>
		<g>
			<path class="st0" d="M282.6,146l-10.3-10.3c-3.8-3.8-10-3.8-13.8,0c-3.8,3.8-3.8,10,0,13.8l10.3,10.3c1.9,1.9,4.4,2.8,6.9,2.8
				c2.5,0,5.1-1,6.9-2.8C286.5,156,286.5,149.8,282.6,146z"/>
		</g>
	</g>
	<g>
		<g>
			<path class="st0" d="M378.6,136c-3.8-3.8-10-3.8-13.8,0l-10.1,10.3c-3.8,3.8-3.8,10,0,13.8c1.9,1.9,4.4,2.8,6.9,2.8
				c2.5,0,5.1-1,6.9-2.8l10.1-10.3C382.5,146,382.5,139.8,378.6,136z"/>
		</g>
	</g>
</g>
</svg>
