<?xml version="1.0" encoding="utf-8"?>
<!-- Generator: Adobe Illustrator 21.1.0, SVG Export Plug-In . SVG Version: 6.00 Build 0)  -->
<svg version="1.1" id="Capa_1" xmlns="http://www.w3.org/2000/svg" xmlns:xlink="http://www.w3.org/1999/xlink" x="0px" y="0px"
	 viewBox="0 0 47 47" style="enable-background:new 0 0 47 47;" xml:space="preserve">
<style type="text/css">
	.st0{fill:#FFFFFF;}
</style>
<g>
	<g id="Layer_1_87_">
		<g>
			<path class="st0" d="M40.1,12.3c0-1-1-1.3-1.8-1.4v2.9C39.1,13.6,40.1,13.2,40.1,12.3z"/>
			<path class="st0" d="M37.3,6c-1,0-1.7,0.6-1.7,1.2c0,0.7,0.6,1.2,1.7,1.4V6L37.3,6z"/>
			<path class="st0" d="M37.8,18.9c4.9,0,8.9-4,8.9-8.9s-4-9.1-8.9-9.1c-4.9,0-8.9,4-8.9,8.9C28.7,14.8,32.8,18.9,37.8,18.9z
				 M33.8,7.6c0-2.1,1.7-3,3.5-3.1V3.7c0-0.2,0.2-0.5,0.5-0.5c0.2,0,0.5,0.2,0.5,0.5v0.8c1.2,0,3.5,0.7,3.5,2.2c0,0.6-0.5,1-1,1
				c-1,0-1-1.6-2.7-1.6v2.8c1.9,0.4,3.7,1,3.7,3.3c0,1.9-1.4,3-3.7,3.1v1c0,0.2-0.2,0.5-0.5,0.5c-0.2,0-0.5-0.2-0.5-0.5v-1
				c-2.5-0.1-3.7-1.6-3.7-2.8c0-0.6,0.4-1,1-1c1.7,0,0.4,2.1,2.8,2.2v-3.1C35.1,10.2,33.8,9.2,33.8,7.6z"/>
			<path class="st0" d="M9.4,37.1H2.9c-1.2,0-2.1,1-2.1,2.1v5.6c0,1.2,1,2.1,2.1,2.1h6.4c1.2,0,2.1-1,2.1-2.1v-5.6
				C11.5,38.1,10.5,37.1,9.4,37.1z"/>
			<path class="st0" d="M25.9,29.6h-6.4c-1.2,0-2.1,1-2.1,2.1v13.1c0,1.2,1,2.1,2.1,2.1h6.4c1.2,0,2.1-1,2.1-2.1v-13
				C28.1,30.6,27.1,29.6,25.9,29.6z"/>
			<path class="st0" d="M42.5,21.1h-6.4c-1.2,0-2.1,1-2.1,2.1v21.6c0,1.2,1,2.1,2.1,2.1h6.4c1.2,0,2.1-1,2.1-2.1V23.2
				C44.6,22,43.7,21.1,42.5,21.1z"/>
			<path class="st0" d="M26.5,13.7l-5-0.6c-0.4-0.1-0.7,0.2-1,0.5c-0.2,0.3-0.2,0.7,0,1.1l1.3,2.1L1.6,31.1c-0.4,0.3-0.5,1-0.3,1.4
				c0.2,0.4,0.6,0.5,0.9,0.5c0.2,0,0.3,0,0.4-0.1L23,18.7l1.2,1.9c0.2,0.4,0.5,0.5,0.9,0.5c0,0,0,0,0.1,0c0.4,0,0.7-0.4,0.8-0.8
				l1.3-5.2c0.1-0.3,0-0.6-0.1-0.9C27.1,13.8,26.8,13.7,26.5,13.7z"/>
		</g>
	</g>
</g>
</svg>
