<?xml version="1.0" encoding="utf-8"?>
<!-- Generator: Adobe Illustrator 21.1.0, SVG Export Plug-In . SVG Version: 6.00 Build 0)  -->
<svg version="1.1" id="Layer_1" xmlns="http://www.w3.org/2000/svg" xmlns:xlink="http://www.w3.org/1999/xlink" x="0px" y="0px"
	 viewBox="0 0 512 512" style="enable-background:new 0 0 512 512;" xml:space="preserve">
<style type="text/css">
	.st0{fill:#FFFFFF;}
</style>
<path class="st0" d="M383.9,441.7v64.6l67.7-64.6H383.9z"/>
<path class="st0" d="M353.9,411.7h100.3V0H57v232.9c21.8-27.2,53.9-45.7,90.3-49.8v-27.5h15c47.5,0,90.3,20.6,119.9,53.3h100.3v30
	h-78.8c12.9,23.2,20.3,49.9,20.3,78.3v15h-27.5c-7.5,67.4-64.8,120-134.2,120c-42.5,0-80.5-19.8-105.3-50.6V512h296.9V411.7z
	 M128.8,111V81h253.7v30H128.8z M330.3,175v-30h52.2v30H330.3z"/>
<path class="st0" d="M57.3,317.3c0,57.9,47.1,105,105,105c52.8,0,96.6-39.2,103.9-90H147.3V213.4C96.5,220.7,57.3,264.5,57.3,317.3z
	"/>
<path class="st0" d="M293.1,302.3c-6.9-60.6-55.2-108.9-115.8-115.8v115.8H293.1z"/>
</svg>
